<mxfile host="app.diagrams.net" agent="Mozilla/5.0 (Windows NT 10.0; Win64; x64) AppleWebKit/537.36 (KHTML, like Gecko) Chrome/126.0.0.0 Safari/537.36" version="24.7.5">
  <diagram name="Page-1" id="4BZThhxY1CdLsWyg66Nv">
    <mxGraphModel dx="776" dy="800" grid="0" gridSize="10" guides="1" tooltips="1" connect="1" arrows="1" fold="1" page="1" pageScale="1" pageWidth="827" pageHeight="1169" background="#000000" math="0" shadow="0">
      <root>
        <mxCell id="0" />
        <mxCell id="1" parent="0" />
        <mxCell id="4FpsL0jXb_BSaOP4U1NA-16" value="" style="endArrow=classic;html=1;rounded=0;strokeColor=#FFFFFF;strokeWidth=0.5;exitX=0.053;exitY=0.423;exitDx=0;exitDy=0;exitPerimeter=0;" edge="1" parent="1" source="4FpsL0jXb_BSaOP4U1NA-11">
          <mxGeometry width="50" height="50" relative="1" as="geometry">
            <mxPoint x="409" y="395.4950000000003" as="sourcePoint" />
            <mxPoint x="377" y="395" as="targetPoint" />
          </mxGeometry>
        </mxCell>
        <mxCell id="4FpsL0jXb_BSaOP4U1NA-38" value="" style="endArrow=classic;html=1;rounded=0;strokeColor=#FFFFFF;strokeWidth=0.5;entryX=0.302;entryY=0.016;entryDx=0;entryDy=0;entryPerimeter=0;exitX=0.5;exitY=1;exitDx=0;exitDy=0;" edge="1" parent="1" source="4FpsL0jXb_BSaOP4U1NA-36" target="4FpsL0jXb_BSaOP4U1NA-10">
          <mxGeometry width="50" height="50" relative="1" as="geometry">
            <mxPoint x="255" y="284" as="sourcePoint" />
            <mxPoint x="430" y="379" as="targetPoint" />
            <Array as="points">
              <mxPoint x="190" y="305" />
              <mxPoint x="489" y="305" />
            </Array>
          </mxGeometry>
        </mxCell>
        <mxCell id="cnhxCptydQaN7Sn1GGuR-95" value="" style="rounded=0;whiteSpace=wrap;html=1;fillColor=#003300;strokeColor=#CCFF99;opacity=60;strokeWidth=0.5;" parent="1" vertex="1">
          <mxGeometry x="251" y="183" width="62" height="29" as="geometry" />
        </mxCell>
        <mxCell id="cnhxCptydQaN7Sn1GGuR-74" value="&lt;b&gt;True&lt;/b&gt;" style="text;html=1;align=center;verticalAlign=middle;whiteSpace=wrap;rounded=0;fillColor=none;strokeColor=none;strokeWidth=1;spacing=9;fontColor=#C2DAFF;fontSize=6;rotation=0;" parent="1" vertex="1">
          <mxGeometry x="188" y="179" width="89.42" height="17" as="geometry" />
        </mxCell>
        <mxCell id="cnhxCptydQaN7Sn1GGuR-104" value="&lt;b&gt;True&lt;/b&gt;" style="text;html=1;align=center;verticalAlign=middle;whiteSpace=wrap;rounded=0;fillColor=none;strokeColor=none;strokeWidth=1;spacing=9;fontColor=#C2DAFF;fontSize=6;rotation=0;" parent="1" vertex="1">
          <mxGeometry x="508" y="327" width="89.42" height="17" as="geometry" />
        </mxCell>
        <mxCell id="4FpsL0jXb_BSaOP4U1NA-6" value="" style="rounded=0;whiteSpace=wrap;html=1;fillColor=#003300;strokeColor=#CCFF99;opacity=60;strokeWidth=0.5;" vertex="1" parent="1">
          <mxGeometry x="585" y="385" width="66" height="22" as="geometry" />
        </mxCell>
        <mxCell id="cnhxCptydQaN7Sn1GGuR-54" value="" style="strokeWidth=0.5;html=1;shape=mxgraph.flowchart.annotation_1;align=left;pointerEvents=1;strokeColor=#FFFFFF;rotation=-90;" parent="1" vertex="1">
          <mxGeometry x="566.47" y="98.1" width="17.28" height="44.15" as="geometry" />
        </mxCell>
        <mxCell id="cnhxCptydQaN7Sn1GGuR-25" value="" style="endArrow=classic;html=1;rounded=0;strokeColor=#66B2FF;strokeWidth=0.5;exitX=1;exitY=0.5;exitDx=0;exitDy=0;fillColor=#ffcccc;" parent="1" edge="1">
          <mxGeometry width="50" height="50" relative="1" as="geometry">
            <mxPoint x="652" y="197.08" as="sourcePoint" />
            <mxPoint x="686" y="159.54" as="targetPoint" />
            <Array as="points">
              <mxPoint x="686" y="197.54" />
            </Array>
          </mxGeometry>
        </mxCell>
        <mxCell id="cnhxCptydQaN7Sn1GGuR-46" value="" style="shape=internalStorage;whiteSpace=wrap;html=1;backgroundOutline=1;fillColor=#445C7A;strokeColor=#B5E0EB;dx=6;dy=15;strokeWidth=0.5;opacity=70;" parent="1" vertex="1">
          <mxGeometry x="462" y="172" width="91" height="49" as="geometry" />
        </mxCell>
        <mxCell id="cnhxCptydQaN7Sn1GGuR-1" value="" style="strokeWidth=0.5;html=1;shape=mxgraph.flowchart.annotation_1;align=left;pointerEvents=1;strokeColor=#FFFFFF;rotation=0;" parent="1" vertex="1">
          <mxGeometry x="154" y="24.32" width="18" height="29" as="geometry" />
        </mxCell>
        <mxCell id="cnhxCptydQaN7Sn1GGuR-2" value="" style="curved=1;endArrow=classic;html=1;rounded=0;strokeColor=#FFFFFF;exitX=0;exitY=0.5;exitDx=0;exitDy=0;exitPerimeter=0;strokeWidth=0.5;" parent="1" source="cnhxCptydQaN7Sn1GGuR-1" edge="1">
          <mxGeometry width="50" height="50" relative="1" as="geometry">
            <mxPoint x="130.55315614617942" y="84.00498753117208" as="sourcePoint" />
            <mxPoint x="116.77574750830564" y="79.64089775561096" as="targetPoint" />
            <Array as="points">
              <mxPoint x="135" y="35" />
              <mxPoint x="122" y="43" />
              <mxPoint x="118" y="52" />
              <mxPoint x="139" y="62" />
              <mxPoint x="122" y="77" />
            </Array>
          </mxGeometry>
        </mxCell>
        <mxCell id="cnhxCptydQaN7Sn1GGuR-3" value="" style="ellipse;whiteSpace=wrap;html=1;fillColor=#663124;strokeColor=#b85450;strokeWidth=0.5;opacity=70;" parent="1" vertex="1">
          <mxGeometry x="45.51328903654485" y="62.18453865336658" width="71.2624584717608" height="34.912718204488776" as="geometry" />
        </mxCell>
        <mxCell id="cnhxCptydQaN7Sn1GGuR-5" value="&lt;b style=&quot;font-size: 6px;&quot;&gt;&lt;font style=&quot;font-size: 6px;&quot; color=&quot;#ffcccc&quot;&gt;START&lt;/font&gt;&lt;/b&gt;" style="text;html=1;align=center;verticalAlign=middle;whiteSpace=wrap;rounded=0;fillColor=none;strokeColor=none;fontSize=6;" parent="1" vertex="1">
          <mxGeometry x="66.89202657807309" y="73.09476309226932" width="28.50498338870432" height="13.09226932668329" as="geometry" />
        </mxCell>
        <mxCell id="cnhxCptydQaN7Sn1GGuR-6" value="&lt;p style=&quot;line-height: 60%;&quot;&gt;&lt;br&gt;&lt;b&gt;MAIN FUNCTION&lt;br&gt;&lt;/b&gt;&lt;br&gt;int _printf(const char *format, ...)&lt;br&gt;&lt;br&gt;&lt;/p&gt;" style="text;align=left;verticalAlign=middle;whiteSpace=wrap;rounded=0;fontColor=#FFFFFF;spacing=2;spacingTop=-1;fontSize=6;labelBackgroundColor=none;html=1;" parent="1" vertex="1">
          <mxGeometry x="158" y="29" width="116.94" height="19.64" as="geometry" />
        </mxCell>
        <mxCell id="cnhxCptydQaN7Sn1GGuR-7" value="" style="endArrow=classic;html=1;rounded=0;exitX=0.5;exitY=1;exitDx=0;exitDy=0;strokeColor=#FFFFFF;entryX=0.485;entryY=-0.003;entryDx=0;entryDy=0;entryPerimeter=0;strokeWidth=0.5;" parent="1" source="cnhxCptydQaN7Sn1GGuR-3" target="cnhxCptydQaN7Sn1GGuR-8" edge="1">
          <mxGeometry width="50" height="50" relative="1" as="geometry">
            <mxPoint x="143.38039867109637" y="203.14463840399003" as="sourcePoint" />
            <mxPoint x="81.14451827242524" y="134.6284289276808" as="targetPoint" />
          </mxGeometry>
        </mxCell>
        <mxCell id="cnhxCptydQaN7Sn1GGuR-8" value="" style="shape=parallelogram;html=1;strokeWidth=0.5;perimeter=parallelogramPerimeter;whiteSpace=wrap;rounded=1;arcSize=12;size=0.23;fillColor=#76608a;strokeColor=#E1D5E7;fontColor=#ffffff;opacity=70;" parent="1" vertex="1">
          <mxGeometry x="42" y="118.48" width="81.9" height="34.26" as="geometry" />
        </mxCell>
        <mxCell id="cnhxCptydQaN7Sn1GGuR-9" value="&lt;p style=&quot;line-height: 170%; font-size: 6px;&quot;&gt;&lt;font style=&quot;font-size: 6px;&quot;&gt;&lt;b style=&quot;font-size: 6px;&quot;&gt;Input from user: &lt;/b&gt;format&amp;nbsp; &amp;amp; args&lt;/font&gt;&lt;/p&gt;" style="text;html=1;align=center;verticalAlign=middle;whiteSpace=wrap;rounded=0;fillColor=none;strokeColor=none;strokeWidth=1;spacing=9;fontSize=6;fontColor=#C2DAFF;" parent="1" vertex="1">
          <mxGeometry x="51.03" y="129.07" width="63.56" height="13.09" as="geometry" />
        </mxCell>
        <mxCell id="cnhxCptydQaN7Sn1GGuR-12" value="" style="endArrow=classic;html=1;rounded=0;exitX=0.5;exitY=1;exitDx=0;exitDy=0;strokeColor=#FFFFFF;entryX=0.5;entryY=0;entryDx=0;entryDy=0;strokeWidth=0.5;" parent="1" target="cnhxCptydQaN7Sn1GGuR-13" edge="1">
          <mxGeometry width="50" height="50" relative="1" as="geometry">
            <mxPoint x="80.96873754152824" y="152.73940149625935" as="sourcePoint" />
            <mxPoint x="81.44382059800665" y="174.12344139650872" as="targetPoint" />
          </mxGeometry>
        </mxCell>
        <mxCell id="cnhxCptydQaN7Sn1GGuR-13" value="" style="shape=internalStorage;whiteSpace=wrap;html=1;backgroundOutline=1;fillColor=#445C7A;strokeColor=#B5E0EB;dx=6;dy=16;strokeWidth=0.5;opacity=70;" parent="1" vertex="1">
          <mxGeometry x="41" y="174.78" width="80.29" height="44.22" as="geometry" />
        </mxCell>
        <mxCell id="cnhxCptydQaN7Sn1GGuR-14" value="&lt;font style=&quot;font-size: 6px;&quot;&gt;&lt;b style=&quot;font-size: 6px;&quot;&gt;Initialization&lt;/b&gt;&lt;/font&gt;&lt;div&gt;&lt;b&gt;&lt;br&gt;&lt;/b&gt;&lt;div style=&quot;font-size: 6px;&quot;&gt;&lt;font style=&quot;font-size: 6px;&quot;&gt;va_list args&lt;/font&gt;&lt;/div&gt;&lt;/div&gt;&lt;div style=&quot;font-size: 6px;&quot;&gt;&lt;font style=&quot;font-size: 6px;&quot;&gt;count to 0&lt;/font&gt;&lt;/div&gt;&lt;div style=&quot;font-size: 6px;&quot;&gt;&lt;font style=&quot;font-size: 6px;&quot;&gt;variable x&amp;nbsp;&lt;/font&gt;&lt;/div&gt;" style="text;html=1;align=center;verticalAlign=middle;whiteSpace=wrap;rounded=0;fillColor=none;strokeColor=none;strokeWidth=1;spacing=9;fontColor=#C2DAFF;fontSize=6;" parent="1" vertex="1">
          <mxGeometry x="54.542491694352165" y="191.45032418952619" width="53.2093023255814" height="13.09226932668329" as="geometry" />
        </mxCell>
        <mxCell id="cnhxCptydQaN7Sn1GGuR-21" value="" style="endArrow=classic;html=1;rounded=0;strokeColor=#FFFFFF;strokeWidth=0.5;exitX=1.003;exitY=0.525;exitDx=0;exitDy=0;exitPerimeter=0;" parent="1" source="cnhxCptydQaN7Sn1GGuR-13" edge="1">
          <mxGeometry width="50" height="50" relative="1" as="geometry">
            <mxPoint x="122" y="198" as="sourcePoint" />
            <mxPoint x="157" y="198.26" as="targetPoint" />
          </mxGeometry>
        </mxCell>
        <mxCell id="cnhxCptydQaN7Sn1GGuR-22" value="" style="rhombus;whiteSpace=wrap;html=1;fillColor=#6d8764;strokeColor=#E6F5A3;fontColor=#ffffff;opacity=70;strokeWidth=0.5;" parent="1" vertex="1">
          <mxGeometry x="157" y="167" width="64" height="62.74" as="geometry" />
        </mxCell>
        <mxCell id="cnhxCptydQaN7Sn1GGuR-23" value="Is&lt;div&gt;*format == &#39;%&#39; ?&lt;/div&gt;" style="text;html=1;align=center;verticalAlign=middle;whiteSpace=wrap;rounded=0;fillColor=none;strokeColor=none;strokeWidth=1;spacing=9;fontColor=#C2DAFF;fontSize=6;" parent="1" vertex="1">
          <mxGeometry x="158" y="190.84" width="60" height="13.09" as="geometry" />
        </mxCell>
        <mxCell id="cnhxCptydQaN7Sn1GGuR-44" value="&lt;b&gt;check Format &amp;amp;&amp;nbsp;&lt;/b&gt;&lt;b&gt;Specs&lt;/b&gt;&lt;div&gt;&lt;b&gt;&lt;br&gt;&lt;/b&gt;&lt;div style=&quot;line-height: 130%;&quot;&gt;check specs matching&lt;/div&gt;&lt;div style=&quot;line-height: 130%;&quot;&gt;&amp;amp; valid flag&lt;/div&gt;&lt;/div&gt;" style="text;html=1;align=center;verticalAlign=middle;whiteSpace=wrap;rounded=0;fillColor=none;strokeColor=none;strokeWidth=1;spacing=9;fontColor=#C2DAFF;fontSize=6;" parent="1" vertex="1">
          <mxGeometry x="464.64" y="182.54" width="88.36" height="17" as="geometry" />
        </mxCell>
        <mxCell id="cnhxCptydQaN7Sn1GGuR-52" value="&lt;p style=&quot;line-height: 60%;&quot;&gt;while loop&amp;nbsp;&lt;/p&gt;&lt;p style=&quot;line-height: 60%;&quot;&gt;condition&lt;/p&gt;" style="text;align=center;verticalAlign=middle;whiteSpace=wrap;rounded=0;fontColor=#FFFFFF;spacing=2;spacingTop=-1;fontSize=6;labelBackgroundColor=none;html=1;" parent="1" vertex="1">
          <mxGeometry x="516.24" y="106.58000000000001" width="116.94" height="19.64" as="geometry" />
        </mxCell>
        <mxCell id="cnhxCptydQaN7Sn1GGuR-56" value="" style="rhombus;whiteSpace=wrap;html=1;fillColor=#6d8764;strokeColor=#E6F5A3;fontColor=#ffffff;opacity=70;strokeWidth=0.5;" parent="1" vertex="1">
          <mxGeometry x="588" y="166.01999999999998" width="64" height="62.74" as="geometry" />
        </mxCell>
        <mxCell id="cnhxCptydQaN7Sn1GGuR-62" value="" style="curved=1;endArrow=classic;html=1;rounded=0;exitX=0;exitY=0.5;exitDx=0;exitDy=0;exitPerimeter=0;strokeColor=#FAFAFA;strokeWidth=0.5;" parent="1" source="cnhxCptydQaN7Sn1GGuR-54" target="cnhxCptydQaN7Sn1GGuR-56" edge="1">
          <mxGeometry width="50" height="50" relative="1" as="geometry">
            <mxPoint x="560" y="223" as="sourcePoint" />
            <mxPoint x="596" y="106" as="targetPoint" />
            <Array as="points">
              <mxPoint x="563" y="158" />
              <mxPoint x="598" y="149" />
            </Array>
          </mxGeometry>
        </mxCell>
        <mxCell id="cnhxCptydQaN7Sn1GGuR-64" value="Is&lt;div&gt;type_spec[i].format == spec ?&lt;/div&gt;" style="text;html=1;align=center;verticalAlign=middle;whiteSpace=wrap;rounded=0;fillColor=none;strokeColor=none;strokeWidth=1;spacing=9;fontColor=#C2DAFF;fontSize=6;" parent="1" vertex="1">
          <mxGeometry x="590" y="190.83999999999997" width="60" height="13.09" as="geometry" />
        </mxCell>
        <mxCell id="cnhxCptydQaN7Sn1GGuR-69" value="" style="endArrow=classic;html=1;rounded=0;strokeColor=#66B2FF;strokeWidth=0.5;exitX=1;exitY=0.5;exitDx=0;exitDy=0;entryX=0;entryY=1;entryDx=0;entryDy=0;fillColor=#ffcccc;" parent="1" edge="1">
          <mxGeometry width="50" height="50" relative="1" as="geometry">
            <mxPoint x="553" y="197.10999999999999" as="sourcePoint" />
            <mxPoint x="589" y="197.47999999999996" as="targetPoint" />
          </mxGeometry>
        </mxCell>
        <mxCell id="cnhxCptydQaN7Sn1GGuR-73" value="" style="endArrow=classic;html=1;rounded=0;strokeColor=#FFFFFF;strokeWidth=0.5;exitX=1;exitY=0.5;exitDx=0;exitDy=0;" parent="1" edge="1">
          <mxGeometry width="50" height="50" relative="1" as="geometry">
            <mxPoint x="221" y="197.99999999999997" as="sourcePoint" />
            <mxPoint x="252" y="198" as="targetPoint" />
          </mxGeometry>
        </mxCell>
        <mxCell id="cnhxCptydQaN7Sn1GGuR-78" value="&lt;b&gt;False&lt;/b&gt;" style="text;html=1;align=center;verticalAlign=middle;whiteSpace=wrap;rounded=0;fillColor=none;strokeColor=none;strokeWidth=1;spacing=9;fontColor=#C2DAFF;fontSize=6;rotation=0;" parent="1" vertex="1">
          <mxGeometry x="129.64" y="135.74" width="88.36" height="17" as="geometry" />
        </mxCell>
        <mxCell id="cnhxCptydQaN7Sn1GGuR-79" value="&lt;b&gt;False&lt;/b&gt;" style="text;html=1;align=center;verticalAlign=middle;whiteSpace=wrap;rounded=0;fillColor=none;strokeColor=none;strokeWidth=1;spacing=9;fontColor=#66B2FF;fontSize=6;rotation=0;" parent="1" vertex="1">
          <mxGeometry x="625" y="179" width="88.36" height="17" as="geometry" />
        </mxCell>
        <mxCell id="cnhxCptydQaN7Sn1GGuR-80" value="" style="endArrow=classic;html=1;rounded=0;strokeColor=#66B2FF;strokeWidth=0.5;exitX=1;exitY=0.5;exitDx=0;exitDy=0;fillColor=#ffcccc;" parent="1" edge="1">
          <mxGeometry width="50" height="50" relative="1" as="geometry">
            <mxPoint x="620.36" y="229.25999999999996" as="sourcePoint" />
            <mxPoint x="620.36" y="259.26" as="targetPoint" />
          </mxGeometry>
        </mxCell>
        <mxCell id="cnhxCptydQaN7Sn1GGuR-81" value="&lt;b&gt;True&lt;/b&gt;" style="text;html=1;align=center;verticalAlign=middle;whiteSpace=wrap;rounded=0;fillColor=none;strokeColor=none;strokeWidth=1;spacing=9;fontColor=#66B2FF;fontSize=6;rotation=0;" parent="1" vertex="1">
          <mxGeometry x="562" y="229" width="88.36" height="17" as="geometry" />
        </mxCell>
        <mxCell id="cnhxCptydQaN7Sn1GGuR-82" value="" style="rounded=0;whiteSpace=wrap;html=1;fillColor=#663300;strokeColor=#FF9340;opacity=70;strokeWidth=0.5;" parent="1" vertex="1">
          <mxGeometry x="584" y="259" width="73" height="42" as="geometry" />
        </mxCell>
        <mxCell id="cnhxCptydQaN7Sn1GGuR-84" value="Call&amp;nbsp;&lt;div&gt;type_spec[i].f(args)&lt;br&gt;&lt;/div&gt;&lt;div&gt;&amp;amp;&lt;/div&gt;&lt;div&gt;Return 1&lt;/div&gt;" style="text;html=1;align=center;verticalAlign=middle;whiteSpace=wrap;rounded=0;fillColor=none;strokeColor=none;strokeWidth=1;spacing=9;fontColor=#C2DAFF;fontSize=6;" parent="1" vertex="1">
          <mxGeometry x="592" y="273.45" width="60" height="13.09" as="geometry" />
        </mxCell>
        <mxCell id="cnhxCptydQaN7Sn1GGuR-86" value="" style="rounded=0;whiteSpace=wrap;html=1;fillColor=#663300;strokeColor=#FF9340;opacity=70;strokeWidth=0.5;" parent="1" vertex="1">
          <mxGeometry x="658.36" y="137" width="55" height="23" as="geometry" />
        </mxCell>
        <mxCell id="cnhxCptydQaN7Sn1GGuR-87" value="Return 0" style="text;html=1;align=center;verticalAlign=middle;whiteSpace=wrap;rounded=0;fillColor=none;strokeColor=none;strokeWidth=1;spacing=9;fontColor=#C2DAFF;fontSize=6;" parent="1" vertex="1">
          <mxGeometry x="657" y="141" width="60" height="13.09" as="geometry" />
        </mxCell>
        <mxCell id="cnhxCptydQaN7Sn1GGuR-89" value="" style="ellipse;whiteSpace=wrap;html=1;fillColor=#663124;strokeColor=#b85450;strokeWidth=0.5;opacity=70;" parent="1" vertex="1">
          <mxGeometry x="647.0032890365449" y="75.00453865336658" width="71.2624584717608" height="34.912718204488776" as="geometry" />
        </mxCell>
        <mxCell id="cnhxCptydQaN7Sn1GGuR-91" value="" style="endArrow=classic;html=1;rounded=0;strokeColor=#FFFFFF;strokeWidth=0.5;exitX=0.459;exitY=-0.001;exitDx=0;exitDy=0;exitPerimeter=0;" parent="1" source="cnhxCptydQaN7Sn1GGuR-86" edge="1">
          <mxGeometry width="50" height="50" relative="1" as="geometry">
            <mxPoint x="684" y="148" as="sourcePoint" />
            <mxPoint x="684" y="110" as="targetPoint" />
            <Array as="points" />
          </mxGeometry>
        </mxCell>
        <mxCell id="cnhxCptydQaN7Sn1GGuR-92" value="&lt;b style=&quot;font-size: 6px;&quot;&gt;&lt;font style=&quot;font-size: 6px;&quot; color=&quot;#ffcccc&quot;&gt;END&lt;/font&gt;&lt;/b&gt;" style="text;html=1;align=center;verticalAlign=middle;whiteSpace=wrap;rounded=0;fillColor=none;strokeColor=none;fontSize=6;" parent="1" vertex="1">
          <mxGeometry x="668.0020265780731" y="85.00476309226931" width="28.50498338870432" height="13.09226932668329" as="geometry" />
        </mxCell>
        <mxCell id="cnhxCptydQaN7Sn1GGuR-96" value="Store count&lt;div&gt;in x after incrementing format&lt;/div&gt;" style="text;html=1;align=center;verticalAlign=middle;whiteSpace=wrap;rounded=0;fillColor=none;strokeColor=none;strokeWidth=1;spacing=9;fontColor=#C2DAFF;fontSize=6;" parent="1" vertex="1">
          <mxGeometry x="245" y="191.83" width="72" height="13.09" as="geometry" />
        </mxCell>
        <mxCell id="cnhxCptydQaN7Sn1GGuR-97" value="" style="rounded=0;whiteSpace=wrap;html=1;fillColor=#003300;strokeColor=#CCFF99;opacity=60;strokeWidth=0.5;" parent="1" vertex="1">
          <mxGeometry x="593.5" y="332" width="67.5" height="23" as="geometry" />
        </mxCell>
        <mxCell id="cnhxCptydQaN7Sn1GGuR-98" value="Count updated&lt;div&gt;with _putchar(format)&lt;/div&gt;" style="text;html=1;align=center;verticalAlign=middle;whiteSpace=wrap;rounded=0;fillColor=none;strokeColor=none;strokeWidth=1;spacing=9;fontColor=#C2DAFF;fontSize=6;" parent="1" vertex="1">
          <mxGeometry x="591" y="336.95" width="73" height="13.09" as="geometry" />
        </mxCell>
        <mxCell id="cnhxCptydQaN7Sn1GGuR-99" value="" style="endArrow=classic;html=1;rounded=0;strokeColor=#FFFFFF;strokeWidth=0.5;exitX=0;exitY=0.5;exitDx=0;exitDy=0;entryX=0.5;entryY=0;entryDx=0;entryDy=0;" parent="1" edge="1" target="4FpsL0jXb_BSaOP4U1NA-10">
          <mxGeometry width="50" height="50" relative="1" as="geometry">
            <mxPoint x="593.5" y="343.5750000000003" as="sourcePoint" />
            <mxPoint x="547.5" y="343.08000000000004" as="targetPoint" />
            <Array as="points">
              <mxPoint x="504" y="344" />
            </Array>
          </mxGeometry>
        </mxCell>
        <mxCell id="cnhxCptydQaN7Sn1GGuR-103" value="" style="endArrow=classic;html=1;rounded=0;strokeColor=#FFFFFF;strokeWidth=0.5;exitX=1;exitY=0.5;exitDx=0;exitDy=0;" parent="1" edge="1">
          <mxGeometry width="50" height="50" relative="1" as="geometry">
            <mxPoint x="621.71" y="301.99999999999994" as="sourcePoint" />
            <mxPoint x="621.71" y="332" as="targetPoint" />
          </mxGeometry>
        </mxCell>
        <mxCell id="4FpsL0jXb_BSaOP4U1NA-1" value="&lt;b&gt;False&lt;/b&gt;" style="text;html=1;align=center;verticalAlign=middle;whiteSpace=wrap;rounded=0;fillColor=none;strokeColor=none;strokeWidth=1;spacing=9;fontColor=#C2DAFF;fontSize=6;rotation=0;" vertex="1" parent="1">
          <mxGeometry x="562.64" y="363" width="88.36" height="17" as="geometry" />
        </mxCell>
        <mxCell id="4FpsL0jXb_BSaOP4U1NA-2" value="" style="endArrow=classic;html=1;rounded=0;strokeColor=#FFFFFF;strokeWidth=0.5;exitX=1;exitY=0.5;exitDx=0;exitDy=0;" edge="1" parent="1">
          <mxGeometry width="50" height="50" relative="1" as="geometry">
            <mxPoint x="621.36" y="355.26" as="sourcePoint" />
            <mxPoint x="621.36" y="385.26" as="targetPoint" />
          </mxGeometry>
        </mxCell>
        <mxCell id="4FpsL0jXb_BSaOP4U1NA-5" value="Call _putchar &#39;%" style="text;html=1;align=center;verticalAlign=middle;whiteSpace=wrap;rounded=0;fillColor=none;strokeColor=none;strokeWidth=1;spacing=9;fontColor=#C2DAFF;fontSize=6;" vertex="1" parent="1">
          <mxGeometry x="578.86" y="389.95" width="79.5" height="13.09" as="geometry" />
        </mxCell>
        <mxCell id="4FpsL0jXb_BSaOP4U1NA-9" value="" style="endArrow=classic;html=1;rounded=0;strokeColor=#FFFFFF;strokeWidth=0.5;exitX=0;exitY=0.5;exitDx=0;exitDy=0;" edge="1" parent="1">
          <mxGeometry width="50" height="50" relative="1" as="geometry">
            <mxPoint x="585" y="397.4950000000003" as="sourcePoint" />
            <mxPoint x="539" y="397.00000000000006" as="targetPoint" />
          </mxGeometry>
        </mxCell>
        <mxCell id="4FpsL0jXb_BSaOP4U1NA-10" value="" style="rounded=0;whiteSpace=wrap;html=1;fillColor=#003300;strokeColor=#CCFF99;opacity=60;strokeWidth=0.5;" vertex="1" parent="1">
          <mxGeometry x="467" y="380" width="73.14" height="29" as="geometry" />
        </mxCell>
        <mxCell id="4FpsL0jXb_BSaOP4U1NA-11" value="Call va_end(args)&lt;div&gt;after incrementing format&lt;/div&gt;" style="text;html=1;align=center;verticalAlign=middle;whiteSpace=wrap;rounded=0;fillColor=none;strokeColor=none;strokeWidth=1;spacing=9;fontColor=#C2DAFF;fontSize=6;" vertex="1" parent="1">
          <mxGeometry x="463.82" y="389.46" width="79.5" height="13.09" as="geometry" />
        </mxCell>
        <mxCell id="4FpsL0jXb_BSaOP4U1NA-13" value="" style="endArrow=classic;html=1;rounded=0;strokeColor=#FFFFFF;strokeWidth=0.5;entryX=0.5;entryY=1;entryDx=0;entryDy=0;exitX=0.5;exitY=0;exitDx=0;exitDy=0;" edge="1" parent="1" source="cnhxCptydQaN7Sn1GGuR-22" target="4FpsL0jXb_BSaOP4U1NA-10">
          <mxGeometry width="50" height="50" relative="1" as="geometry">
            <mxPoint x="257" y="167" as="sourcePoint" />
            <mxPoint x="416" y="320" as="targetPoint" />
            <Array as="points">
              <mxPoint x="188" y="63" />
              <mxPoint x="733" y="63" />
              <mxPoint x="731" y="431" />
              <mxPoint x="504" y="431" />
            </Array>
          </mxGeometry>
        </mxCell>
        <mxCell id="4FpsL0jXb_BSaOP4U1NA-14" value="" style="rounded=0;whiteSpace=wrap;html=1;fillColor=#663300;strokeColor=#FF9340;opacity=70;strokeWidth=0.5;" vertex="1" parent="1">
          <mxGeometry x="322.36" y="384" width="55" height="23" as="geometry" />
        </mxCell>
        <mxCell id="4FpsL0jXb_BSaOP4U1NA-15" value="Return count" style="text;html=1;align=center;verticalAlign=middle;whiteSpace=wrap;rounded=0;fillColor=none;strokeColor=none;strokeWidth=1;spacing=9;fontColor=#C2DAFF;fontSize=6;" vertex="1" parent="1">
          <mxGeometry x="321" y="388" width="60" height="13.09" as="geometry" />
        </mxCell>
        <mxCell id="4FpsL0jXb_BSaOP4U1NA-17" value="" style="ellipse;whiteSpace=wrap;html=1;fillColor=#663124;strokeColor=#b85450;strokeWidth=0.5;opacity=70;" vertex="1" parent="1">
          <mxGeometry x="312.7332890365449" y="437.0045386533666" width="71.2624584717608" height="34.912718204488776" as="geometry" />
        </mxCell>
        <mxCell id="4FpsL0jXb_BSaOP4U1NA-18" value="&lt;b style=&quot;font-size: 6px;&quot;&gt;&lt;font style=&quot;font-size: 6px;&quot; color=&quot;#ffcccc&quot;&gt;END&lt;/font&gt;&lt;/b&gt;" style="text;html=1;align=center;verticalAlign=middle;whiteSpace=wrap;rounded=0;fillColor=none;strokeColor=none;fontSize=6;" vertex="1" parent="1">
          <mxGeometry x="333.73202657807315" y="447.0047630922693" width="28.50498338870432" height="13.09226932668329" as="geometry" />
        </mxCell>
        <mxCell id="4FpsL0jXb_BSaOP4U1NA-19" value="" style="endArrow=classic;html=1;rounded=0;strokeColor=#FFFFFF;strokeWidth=0.5;exitX=1;exitY=0.5;exitDx=0;exitDy=0;" edge="1" parent="1">
          <mxGeometry width="50" height="50" relative="1" as="geometry">
            <mxPoint x="348" y="407" as="sourcePoint" />
            <mxPoint x="348" y="437" as="targetPoint" />
          </mxGeometry>
        </mxCell>
        <mxCell id="4FpsL0jXb_BSaOP4U1NA-21" value="&lt;p style=&quot;line-height: 60%;&quot;&gt;while loop&amp;nbsp;&lt;/p&gt;&lt;p style=&quot;line-height: 60%;&quot;&gt;condition&lt;/p&gt;" style="text;align=center;verticalAlign=middle;whiteSpace=wrap;rounded=0;fontColor=#FFFFFF;spacing=2;spacingTop=-1;fontSize=6;labelBackgroundColor=none;html=1;" vertex="1" parent="1">
          <mxGeometry x="211" y="100.48000000000002" width="116.94" height="19.64" as="geometry" />
        </mxCell>
        <mxCell id="4FpsL0jXb_BSaOP4U1NA-22" value="" style="strokeWidth=0.5;html=1;shape=mxgraph.flowchart.annotation_1;align=left;pointerEvents=1;strokeColor=#FFFFFF;rotation=-90;" vertex="1" parent="1">
          <mxGeometry x="261.23" y="92" width="17.28" height="44.15" as="geometry" />
        </mxCell>
        <mxCell id="4FpsL0jXb_BSaOP4U1NA-23" value="" style="curved=1;endArrow=classic;html=1;rounded=0;exitX=0;exitY=0.5;exitDx=0;exitDy=0;exitPerimeter=0;strokeColor=#FAFAFA;strokeWidth=0.5;entryX=0.203;entryY=0.144;entryDx=0;entryDy=0;entryPerimeter=0;" edge="1" source="4FpsL0jXb_BSaOP4U1NA-22" parent="1" target="cnhxCptydQaN7Sn1GGuR-74">
          <mxGeometry width="50" height="50" relative="1" as="geometry">
            <mxPoint x="254.76" y="216.9" as="sourcePoint" />
            <mxPoint x="304.76" y="169.9" as="targetPoint" />
            <Array as="points">
              <mxPoint x="256" y="136" />
              <mxPoint x="228" y="138" />
              <mxPoint x="243" y="169" />
            </Array>
          </mxGeometry>
        </mxCell>
        <mxCell id="4FpsL0jXb_BSaOP4U1NA-24" value="&lt;b&gt;False&lt;/b&gt;" style="text;html=1;align=center;verticalAlign=middle;whiteSpace=wrap;rounded=0;fillColor=none;strokeColor=none;strokeWidth=1;spacing=9;fontColor=#C2DAFF;fontSize=6;rotation=0;" vertex="1" parent="1">
          <mxGeometry x="131" y="230" width="88.36" height="17" as="geometry" />
        </mxCell>
        <mxCell id="4FpsL0jXb_BSaOP4U1NA-25" value="" style="endArrow=classic;html=1;rounded=0;strokeColor=#FFFFFF;strokeWidth=0.5;exitX=1;exitY=0.5;exitDx=0;exitDy=0;" edge="1" parent="1">
          <mxGeometry width="50" height="50" relative="1" as="geometry">
            <mxPoint x="189.36" y="229.25999999999996" as="sourcePoint" />
            <mxPoint x="189.36" y="259.26" as="targetPoint" />
          </mxGeometry>
        </mxCell>
        <mxCell id="4FpsL0jXb_BSaOP4U1NA-29" value="" style="rounded=0;whiteSpace=wrap;html=1;fillColor=#003300;strokeColor=#CCFF99;opacity=60;strokeWidth=0.5;" vertex="1" parent="1">
          <mxGeometry x="480" y="230" width="55" height="23" as="geometry" />
        </mxCell>
        <mxCell id="4FpsL0jXb_BSaOP4U1NA-30" value="Count updated" style="text;html=1;align=center;verticalAlign=middle;whiteSpace=wrap;rounded=0;fillColor=none;strokeColor=none;strokeWidth=1;spacing=9;fontColor=#C2DAFF;fontSize=6;" vertex="1" parent="1">
          <mxGeometry x="477.5" y="234.95" width="60" height="13.09" as="geometry" />
        </mxCell>
        <mxCell id="4FpsL0jXb_BSaOP4U1NA-31" value="" style="endArrow=none;html=1;rounded=0;strokeColor=#66B2FF;entryX=0.5;entryY=1;entryDx=0;entryDy=0;strokeWidth=0.5;exitX=0.5;exitY=0;exitDx=0;exitDy=0;fillColor=#ffcccc;" edge="1" parent="1" source="4FpsL0jXb_BSaOP4U1NA-29" target="cnhxCptydQaN7Sn1GGuR-46">
          <mxGeometry width="50" height="50" relative="1" as="geometry">
            <mxPoint x="507" y="229" as="sourcePoint" />
            <mxPoint x="506.5" y="223" as="targetPoint" />
          </mxGeometry>
        </mxCell>
        <mxCell id="4FpsL0jXb_BSaOP4U1NA-36" value="" style="rounded=0;whiteSpace=wrap;html=1;fillColor=#003300;strokeColor=#CCFF99;opacity=60;strokeWidth=0.5;" vertex="1" parent="1">
          <mxGeometry x="156.5" y="260" width="67.5" height="25" as="geometry" />
        </mxCell>
        <mxCell id="4FpsL0jXb_BSaOP4U1NA-37" value="Count updated&lt;div&gt;with _putchar(format)&lt;/div&gt;" style="text;html=1;align=center;verticalAlign=middle;whiteSpace=wrap;rounded=0;fillColor=none;strokeColor=none;strokeWidth=1;spacing=9;fontColor=#C2DAFF;fontSize=6;" vertex="1" parent="1">
          <mxGeometry x="154" y="264.95" width="73" height="13.09" as="geometry" />
        </mxCell>
        <mxCell id="4FpsL0jXb_BSaOP4U1NA-49" value="" style="endArrow=classic;html=1;rounded=0;strokeColor=#66B2FF;strokeWidth=0.5;exitX=1.004;exitY=0.565;exitDx=0;exitDy=0;entryX=-0.006;entryY=0.545;entryDx=0;entryDy=0;fillColor=#ffcccc;entryPerimeter=0;exitPerimeter=0;" edge="1" parent="1" source="4FpsL0jXb_BSaOP4U1NA-53" target="cnhxCptydQaN7Sn1GGuR-46">
          <mxGeometry width="50" height="50" relative="1" as="geometry">
            <mxPoint x="416.09587999999985" y="198.49900000000002" as="sourcePoint" />
            <mxPoint x="406.73" y="198.44999999999996" as="targetPoint" />
          </mxGeometry>
        </mxCell>
        <mxCell id="4FpsL0jXb_BSaOP4U1NA-51" value="" style="endArrow=none;html=1;rounded=0;strokeColor=#F2F2F2;strokeWidth=0.5;entryX=0.006;entryY=0.561;entryDx=0;entryDy=0;entryPerimeter=0;exitX=0.944;exitY=0.517;exitDx=0;exitDy=0;exitPerimeter=0;" edge="1" parent="1" target="4FpsL0jXb_BSaOP4U1NA-53">
          <mxGeometry width="50" height="50" relative="1" as="geometry">
            <mxPoint x="312.998" y="198.34753" as="sourcePoint" />
            <mxPoint x="358.3026" y="198.351" as="targetPoint" />
          </mxGeometry>
        </mxCell>
        <mxCell id="4FpsL0jXb_BSaOP4U1NA-53" value="" style="rounded=0;whiteSpace=wrap;html=1;fillColor=#663300;strokeColor=#FF9340;opacity=70;strokeWidth=0.5;" vertex="1" parent="1">
          <mxGeometry x="343" y="174.78" width="81" height="42" as="geometry" />
        </mxCell>
        <mxCell id="4FpsL0jXb_BSaOP4U1NA-43" value="&lt;div style=&quot;forced-color-adjust: none;&quot;&gt;&lt;font color=&quot;#f2f2f2&quot;&gt;Call Function :&lt;/font&gt;&lt;/div&gt;&lt;div style=&quot;forced-color-adjust: none;&quot;&gt;int print_typeformats(const char spec, va_list args)&lt;/div&gt;&lt;div style=&quot;forced-color-adjust: none;&quot;&gt;&lt;br style=&quot;forced-color-adjust: none; font-family: Helvetica; font-size: 6px; font-style: normal; font-variant-ligatures: normal; font-variant-caps: normal; font-weight: 400; letter-spacing: normal; orphans: 2; text-align: center; text-indent: 0px; text-transform: none; widows: 2; word-spacing: 0px; -webkit-text-stroke-width: 0px; white-space: normal; background-color: rgb(251, 251, 251); text-decoration-thickness: initial; text-decoration-style: initial; text-decoration-color: initial;&quot;&gt;&lt;br&gt;&lt;br&gt;&lt;/div&gt;" style="text;html=1;align=center;verticalAlign=middle;whiteSpace=wrap;rounded=0;fillColor=none;strokeColor=none;strokeWidth=1;spacing=9;fontColor=#66B2FF;fontSize=6;" vertex="1" parent="1">
          <mxGeometry x="340.32" y="196" width="88.36" height="17" as="geometry" />
        </mxCell>
        <mxCell id="4FpsL0jXb_BSaOP4U1NA-55" value="&lt;h1 style=&quot;margin-top: 0px;&quot;&gt;Flowchart&lt;/h1&gt;&lt;div&gt;Custom printf Flowchart showing&lt;/div&gt;&lt;div&gt;general behaviour of the _printf&lt;/div&gt;&lt;div&gt;with the most important functions&lt;/div&gt;&lt;div&gt;&lt;br&gt;&lt;/div&gt;" style="text;html=1;whiteSpace=wrap;overflow=hidden;rounded=0;fontColor=#F2F2F2;" vertex="1" parent="1">
          <mxGeometry x="44" y="344" width="180" height="101" as="geometry" />
        </mxCell>
        <mxCell id="4FpsL0jXb_BSaOP4U1NA-56" value="&lt;h1 style=&quot;margin-top: 0px;&quot;&gt;_printf&lt;/h1&gt;" style="text;html=1;whiteSpace=wrap;overflow=hidden;rounded=0;fontColor=#F2F2F2;" vertex="1" parent="1">
          <mxGeometry x="20" y="323" width="81" height="41" as="geometry" />
        </mxCell>
      </root>
    </mxGraphModel>
  </diagram>
</mxfile>
